<svg xmlns="http://www.w3.org/2000/svg" version="1.1" xlink="http://www.w3.org/1999/xlink" xmlns:svgjs="http://svgjs.com/svgjs" width="100%" height="100%" viewBox="1.600000023841858 -24.030000686645508 401.2099914550781 25.030000686645508"><g fill="#1c1c1c"><path d="M1.68 -17.22C1.63 -14.4 1.6 -10.89 1.6 -6.69C1.6 -2.5 1.75 -0.1 2.04 0.51C5.32 0.42 7.95 0.37 9.93 0.37L14.53 0.43C16.94 0.43 18.93 -0.03 20.5 -0.96C22.64 -2.19 23.71 -4 23.71 -6.39C23.71 -7.73 23.3 -8.87 22.48 -9.8C21.67 -10.73 20.49 -11.41 18.96 -11.83C21.67 -13.25 23.03 -14.97 23.03 -17C23.03 -18.05 22.85 -18.99 22.49 -19.82C22.13 -20.66 21.66 -21.32 21.09 -21.81C19.46 -22.83 17.42 -23.34 14.96 -23.34L7.77 -23.34C6.97 -23.34 5.23 -23.27 2.55 -23.12L1.71 -23.08L1.74 -23.05C1.69 -21.33 1.67 -19.81 1.67 -18.48L1.67 -17.52ZM11.28 -4.3L10.71 -4.3C10.49 -4.46 10.38 -5.05 10.38 -6.07C10.38 -7.09 10.42 -8.13 10.49 -9.19L10.77 -10.06L11.21 -10.06C12.55 -10.02 13.54 -9.82 14.19 -9.47C14.91 -9.07 15.27 -8.28 15.27 -7.1C15.27 -5.23 13.94 -4.3 11.28 -4.3ZM14.59 -14.62C14.16 -13.76 13.16 -13.24 11.6 -13.05L10.84 -12.96C10.41 -13.03 10.19 -13.26 10.17 -13.65L10.13 -14.47C10.08 -15.62 10.06 -16.75 10.06 -17.85C10.06 -18.46 10.48 -18.77 11.32 -18.77C12.17 -18.77 12.97 -18.59 13.74 -18.22C14.52 -17.85 14.9 -17.12 14.9 -16.04C14.9 -15.49 14.8 -15.01 14.59 -14.62Z M46.98 -5.92C46.96 -6.1 46.08 -6.19 44.34 -6.19C42.6 -6.19 40.79 -6.13 38.93 -6.02L38.31 -6.37L38.38 -12.79L38.39 -12.97L38.44 -17.49L38.56 -22.88C38.26 -23.25 36.64 -23.43 33.69 -23.43L31.1 -23.4L30.35 -23.4C29.99 -23.4 29.71 -23.41 29.51 -23.42C29.29 -23.03 29.18 -22.18 29.18 -20.87L29.23 -18.65L29.23 -18.48C29.25 -17.72 29.26 -16.91 29.26 -16.04L29.24 -11.37L29.24 -8.47L29.23 -5.54L29.23 -2.04L29.2 -1.03C29.2 -0.32 29.28 0.19 29.44 0.49C30.51 0.51 31.28 0.52 31.74 0.52C41.83 0.52 46.91 0.39 46.97 0.12C46.98 -0.72 46.98 -1.92 46.98 -3.47C46.91 -3.71 46.88 -4.1 46.88 -4.64L46.88 -5C46.88 -5.33 46.91 -5.64 46.98 -5.92Z M76.24 0.17C76.11 -0.14 76.01 -0.43 75.93 -0.71L75.72 -1.48C75.5 -2.15 74.54 -5.18 72.82 -10.57C71.1 -15.96 69.73 -20.08 68.7 -22.95C68.7 -23.2 68.39 -23.32 67.77 -23.32L66.56 -23.25L65.08 -23.32L59.6 -23.25L57.04 -23.25C57.01 -23.23 56.91 -22.94 56.75 -22.4C56.59 -21.85 56.2 -20.64 55.57 -18.77C54.93 -16.9 54.55 -15.76 54.42 -15.35L54 -14.07L54.01 -14.07L53.66 -12.97C51.9 -7.71 50.51 -3.3 49.48 0.26C49.56 0.38 49.64 0.47 49.71 0.54L50.79 0.54L51.22 0.52L51.69 0.52L55.7 0.43L56.59 0.43L56.98 0.45C57.85 0.45 58.34 0.4 58.44 0.29C58.56 -0.15 58.72 -0.8 58.95 -1.67C59.18 -2.53 59.31 -3.05 59.35 -3.22L65.95 -3.29C66.35 -2.3 66.59 -1.28 66.68 -0.22L66.76 0.11C66.8 0.22 66.83 0.28 66.86 0.29C67.85 0.37 69.09 0.4 70.58 0.4L72.08 0.39L73.02 0.39L73.98 0.37L75.4 0.37C75.95 0.37 76.23 0.3 76.24 0.17ZM60.97 -8.25L60.06 -8.25L60.23 -9.27C61.61 -15.4 62.44 -18.5 62.72 -18.56C62.94 -18.46 63.09 -18.36 63.16 -18.23C63.18 -18.2 63.2 -18.18 63.22 -18.16C63.23 -18.15 63.25 -18.12 63.26 -18.08C63.28 -18.04 63.29 -18.01 63.3 -17.99C63.31 -17.98 63.32 -17.95 63.34 -17.9C63.36 -17.86 63.37 -17.81 63.39 -17.76C63.41 -17.7 63.73 -16.32 64.35 -13.59L64.94 -10.95C65.02 -10.38 65.14 -9.48 65.29 -8.25L61.6 -8.24Z M79.26 -12.29C79.26 -8.06 80.25 -4.78 82.21 -2.47C84.17 -0.15 87.12 1 91.03 1C93.28 1 95.33 0.56 97.21 -0.32C99.09 -1.2 100.46 -2.54 101.34 -4.35C101.81 -5.34 102.09 -6.44 102.19 -7.65L102.23 -8.16C102.18 -8.37 102.09 -8.47 101.97 -8.48L101.35 -8.48L100.44 -8.5L99.55 -8.5L98.08 -8.52L97.33 -8.5L94.83 -8.5L94.12 -8.52L93.53 -8.52C93.43 -8.36 93.34 -8.16 93.27 -7.91C92.94 -6.73 92.56 -5.94 92.11 -5.55C91.95 -5.41 91.66 -5.34 91.25 -5.34C89.65 -5.4 88.84 -6.85 88.84 -9.69L88.9 -11.25L88.9 -11.62C88.9 -12.5 88.93 -13.3 88.98 -14.01C89.03 -14.73 89.18 -15.41 89.43 -16.04C89.56 -16.41 89.73 -16.7 89.92 -16.9C90.12 -17.1 90.37 -17.27 90.67 -17.42C90.97 -17.56 91.33 -17.63 91.73 -17.63C92.13 -17.63 92.48 -17.5 92.78 -17.22C93.09 -16.95 93.31 -16.39 93.46 -15.55C93.61 -14.71 93.83 -14.28 94.12 -14.28L94.43 -14.28L94.8 -14.3L96.14 -14.27L96.34 -14.27L98.79 -14.24C100.83 -14.24 101.93 -14.32 102.11 -14.48L101.97 -15.93C101.81 -17.79 101.19 -19.33 100.13 -20.58C98.38 -22.68 95.58 -23.72 91.76 -23.72C89.48 -23.72 87.36 -23.3 85.42 -22.44C83.24 -21.49 81.6 -19.87 80.5 -17.59C79.92 -16.4 79.51 -14.64 79.26 -12.29Z M107.44 -20.98L107.4 -13.34L107.4 -4.63L107.37 -2.21L107.37 0.14L107.41 0.19C107.54 0.4 107.74 0.51 108.03 0.51L109.45 0.51L113.81 0.48L114.65 0.48L114.97 0.49C115.93 0.49 116.47 0.4 116.59 0.22L116.56 -3.29L116.56 -3.49C116.72 -6.55 116.85 -8.49 116.93 -9.32C118.64 -5.85 120.28 -2.64 121.87 0.32L128.79 0.32C129.37 0.3 129.83 0.29 130.19 0.29C130.54 0.29 131.01 0.3 131.58 0.32L131.68 0.32C131.74 0.24 131.77 0.15 131.77 0.05C131.77 -0.06 131.54 -0.48 131.09 -1.23L130.72 -1.84C130.08 -2.87 129.06 -4.63 127.64 -7.1C126.22 -9.56 125.3 -11.06 124.87 -11.58L124.52 -12.16C125.75 -14.19 127.84 -17.86 130.77 -23.15C130.08 -23.15 129.04 -23.17 127.67 -23.21C126.29 -23.24 125.08 -23.26 124.05 -23.26C123.02 -23.26 122.14 -23.26 121.42 -23.25C121.02 -22.74 120.64 -22.05 120.29 -21.17C119.94 -20.29 119.6 -19.5 119.27 -18.8C118.93 -18.09 118.75 -17.69 118.7 -17.6L118.53 -17.23C118.47 -17.1 118.24 -16.63 117.83 -15.83C117.43 -15.02 117.15 -14.42 116.99 -14.02L116.45 -14.11C116.45 -17.57 116.48 -20.55 116.53 -23.06C116.32 -23.27 115.84 -23.37 115.08 -23.37C114.32 -23.37 113.74 -23.35 113.34 -23.32L111.16 -23.35C110.6 -23.36 109.92 -23.37 109.15 -23.37C108.37 -23.37 107.84 -23.36 107.57 -23.35C107.45 -23.22 107.4 -22.87 107.4 -22.31Z M153.81 -22.57C153.81 -22.8 153.76 -22.99 153.66 -23.12C153.57 -23.24 153.37 -23.31 153.09 -23.31L152.85 -23.29L152.33 -23.29L147.04 -23.35L139.59 -23.28L138.54 -23.28L138.15 -23.29C136.75 -23.29 136.06 -23.23 136.06 -23.09L135.96 -1.64C135.96 -1.16 135.98 -0.59 136.02 0.09C136.16 0.31 136.24 0.45 136.26 0.51L145.08 0.43C145.26 0.41 145.36 0.25 145.36 -0.06L145.36 -1.51L145.37 -2.04L145.26 -8.18C147.51 -8.23 149.55 -8.3 151.39 -8.41L152.22 -8.38L152.42 -8.38C152.7 -8.38 152.91 -8.43 153.04 -8.55C153.17 -8.66 153.24 -8.89 153.24 -9.22L153.24 -14.39C152.96 -14.58 152.2 -14.67 150.96 -14.67C149.73 -14.67 147.82 -14.56 145.25 -14.35C145.22 -14.69 145.2 -15.03 145.2 -15.39L145.23 -16.75L145.23 -17.2L148.8 -17.22C150.88 -17.22 152.53 -17.27 153.73 -17.37C153.77 -18.47 153.79 -19.72 153.79 -21.13Z M165.52 -23.2L163.39 -23.17L161.43 -23.18L160.49 -23.18L159.5 -23.2C158.91 -23.2 158.62 -23.16 158.62 -23.08L158.56 -18.16L158.6 -14.65L158.59 -14.13L158.57 -10.13L158.56 -8.98L158.56 -7.85L158.5 -1.45L158.51 -0.99L158.48 0.4C158.52 0.43 158.55 0.45 158.57 0.45L158.6 0.43L158.7 0.46C159.36 0.45 160.72 0.45 162.78 0.45C164.84 0.45 166.44 0.43 167.57 0.39C167.69 0.37 167.77 0.3 167.8 0.2L167.8 -2.62L167.78 -3.12L167.78 -7.81L168.6 -7.81L168.8 -7.82C169.68 -7.82 170.29 -7.63 170.64 -7.23C171 -6.84 171.2 -6.08 171.24 -4.95L171.32 -4.29C171.68 -1.25 172.01 0.26 172.33 0.26L172.43 0.26C173.54 0.31 174.81 0.34 176.26 0.34C177.7 0.34 179.3 0.28 181.05 0.17L181.11 0.12C180.99 -0.29 180.84 -0.96 180.68 -1.88L180.52 -2.67C180.48 -2.94 180.43 -3.46 180.36 -4.24C180.3 -5.02 180.21 -5.72 180.09 -6.32C179.61 -9.1 178.23 -10.85 175.94 -11.57C177.38 -12.26 178.48 -13.06 179.23 -13.97C179.98 -14.88 180.36 -15.98 180.36 -17.26C180.36 -19.11 179.76 -20.55 178.56 -21.57C177.36 -22.58 175.61 -23.12 173.32 -23.18C172.47 -23.23 171.52 -23.25 170.47 -23.25ZM181.2 0.08C181.15 0.08 181.13 0.08 181.13 0.09L181.13 0.12ZM181.13 0.12L181.11 0.12C181.11 0.13 181.12 0.14 181.13 0.14ZM171.22 -18.17C172.14 -17.74 172.6 -17.07 172.6 -16.15C172.6 -14 170.99 -12.89 167.77 -12.82C167.72 -13.35 167.69 -14.41 167.69 -15.97C167.69 -17.54 167.75 -18.41 167.86 -18.57L168.75 -18.57C169.78 -18.57 170.61 -18.44 171.22 -18.17Z M185.72 -1.65L185.67 0.05L185.66 0.31C185.82 0.41 185.96 0.49 186.06 0.54L194.7 0.4L195.22 0.4C195.36 0.34 195.45 0.25 195.5 0.14L195.38 -4.35C195.38 -4.42 195.36 -4.49 195.33 -4.55L195.33 -4.58C195.3 -4.64 195.28 -4.72 195.28 -4.81L195.18 -17.37L195.18 -22.95L195.28 -22.95C195.27 -23.1 195.26 -23.18 195.24 -23.22C194.62 -23.15 193.48 -23.12 191.83 -23.12C190.17 -23.12 188.24 -23.19 186.04 -23.32C185.99 -23.25 185.97 -23.09 185.97 -22.85C185.97 -22.6 185.99 -22.32 186.03 -22L186.03 -21.49C186.03 -20.83 186.04 -20.18 186.07 -19.53C185.95 -14.98 185.89 -10.47 185.89 -6C185.78 -5.19 185.72 -3.74 185.72 -1.65Z M208.21 -23.32L206.45 -23.32C205.78 -23.32 204.89 -23.3 203.77 -23.24C202.64 -23.18 202.08 -23.11 202.08 -23.03L202.08 -18.62L202.07 -18.26L202.07 -15.73C202.07 -15.1 202.08 -14.13 202.1 -12.83L202.1 -7.19L202.07 -3.76L202.07 -1.36L202.05 -0.8C202.05 -0.3 202.15 0.14 202.35 0.51C205.14 0.42 207.47 0.37 209.33 0.37L213.44 0.42L213.82 0.42L213.88 0.35C216.38 0.33 218.59 -0.35 220.52 -1.7C223.74 -3.94 225.35 -7.4 225.35 -12.08C225.35 -14.7 224.6 -17.1 223.11 -19.27C222.59 -20.02 222.12 -20.55 221.69 -20.87C219.65 -22.54 216.12 -23.37 211.09 -23.37ZM214.75 -17.99C215.94 -17.14 216.54 -15.16 216.54 -12.05C216.54 -7.84 215.52 -5.38 213.5 -4.66C212.92 -4.54 212.11 -4.46 211.05 -4.44C210.7 -4.5 210.49 -4.69 210.43 -5.01L210.34 -9.47C210.25 -12.52 210.21 -14.93 210.21 -16.71L210.21 -17.57L210.49 -18.14C210.55 -18.27 210.68 -18.48 210.86 -18.76C211.06 -18.75 211.37 -18.74 211.79 -18.73C212.22 -18.72 212.56 -18.71 212.8 -18.7C213.51 -18.64 214.16 -18.41 214.75 -17.99Z M254.47 0.17C254.33 -0.14 254.23 -0.43 254.16 -0.71L253.94 -1.48C253.73 -2.15 252.76 -5.18 251.04 -10.57C249.32 -15.96 247.95 -20.08 246.92 -22.95C246.92 -23.2 246.61 -23.32 246 -23.32L244.78 -23.25L243.3 -23.32L237.82 -23.25L235.26 -23.25C235.23 -23.23 235.14 -22.94 234.98 -22.4C234.82 -21.85 234.42 -20.64 233.79 -18.77C233.16 -16.9 232.77 -15.76 232.64 -15.35L232.22 -14.07L232.24 -14.07L231.88 -12.97C230.12 -7.71 228.73 -3.3 227.7 0.26C227.79 0.38 227.86 0.47 227.93 0.54L229.01 0.54L229.45 0.52L229.91 0.52L233.92 0.43L234.81 0.43L235.2 0.45C236.07 0.45 236.56 0.4 236.67 0.29C236.78 -0.15 236.95 -0.8 237.17 -1.67C237.4 -2.53 237.53 -3.05 237.58 -3.22L244.18 -3.29C244.57 -2.3 244.81 -1.28 244.9 -0.22L244.98 0.11C245.02 0.22 245.06 0.28 245.09 0.29C246.08 0.37 247.31 0.4 248.81 0.4L250.3 0.39L251.24 0.39L252.2 0.37L253.62 0.37C254.17 0.37 254.46 0.3 254.47 0.17ZM239.2 -8.25L238.29 -8.25L238.45 -9.27C239.83 -15.4 240.66 -18.5 240.94 -18.56C241.16 -18.46 241.31 -18.36 241.39 -18.23C241.41 -18.2 241.42 -18.18 241.44 -18.16C241.46 -18.15 241.47 -18.12 241.49 -18.08C241.5 -18.04 241.51 -18.01 241.52 -17.99C241.53 -17.98 241.55 -17.95 241.56 -17.9C241.58 -17.86 241.6 -17.81 241.62 -17.76C241.64 -17.7 241.96 -16.32 242.57 -13.59L243.16 -10.95C243.24 -10.38 243.36 -9.48 243.51 -8.25L239.83 -8.24Z M277.49 -23.25L274.83 -23.25C274.51 -23.27 274.11 -23.28 273.64 -23.28L271.66 -23.28C270.15 -23.28 269.39 -23.24 269.38 -23.15C268.22 -19.39 267.11 -16.11 266.06 -13.31L265.37 -15.77C263.98 -20.65 263.12 -23.12 262.79 -23.18C261.68 -23.22 260.03 -23.23 257.84 -23.23L253.88 -23.23C253.55 -23.23 253.38 -23.21 253.38 -23.15C253.38 -22.74 253.8 -21.91 254.62 -20.66L254.62 -20.67C254.94 -20.07 255.23 -19.52 255.5 -19C255.76 -18.49 255.93 -18.18 255.99 -18.06L258.29 -13.47C258.74 -12.53 259.09 -11.81 259.32 -11.29C260.42 -8.83 260.97 -6.53 260.97 -4.38L260.96 -3.25L260.94 -2.79L260.94 -2.34L260.91 -0.42C260.91 -0.05 261.02 0.28 261.25 0.57L270.09 0.51C270.24 0.51 270.35 0.43 270.4 0.26L270.4 -6.11C270.4 -6.81 270.41 -7.33 270.43 -7.68C271.79 -10.44 272.75 -12.36 273.31 -13.45L273.84 -14.45C274.28 -15.39 275.26 -17.26 276.77 -20.05L277.77 -21.98L277.77 -21.97L278.23 -22.88C278.18 -23.08 278.11 -23.21 278 -23.26Z M280.58 -6.37C280.51 -6.37 280.47 -6.38 280.44 -6.39C280.53 -5.47 280.65 -4.76 280.79 -4.25C280.94 -3.74 281.22 -3.18 281.64 -2.58C282.27 -1.32 283.51 -0.42 285.36 0.14C287.21 0.69 289.08 0.97 290.97 0.97C292.52 0.83 293.97 0.59 295.32 0.25C300 -0.92 302.34 -3.46 302.34 -7.37C302.34 -8.84 301.94 -10.13 301.15 -11.24C300.35 -12.34 298.86 -13.27 296.67 -14.01L296.67 -13.99C295.97 -14.22 295.09 -14.45 294.05 -14.7C293.01 -14.95 292.38 -15.1 292.16 -15.16L291.62 -15.3C291.32 -15.38 291.1 -15.44 290.97 -15.48C290.83 -15.52 290.62 -15.59 290.34 -15.7C290.06 -15.8 289.86 -15.91 289.72 -16.01C289.59 -16.11 289.46 -16.25 289.35 -16.43C289.23 -16.6 289.17 -16.82 289.18 -17.09C289.18 -17.36 289.4 -17.63 289.83 -17.92C290.26 -18.2 290.78 -18.34 291.39 -18.34L291.45 -18.34C292.23 -18.34 292.7 -18.16 292.84 -17.79C292.9 -17.63 292.96 -17.48 293.01 -17.32C293.13 -16.95 293.51 -16.77 294.14 -16.77C296.22 -16.77 298.62 -16.82 301.32 -16.92L301.73 -17.32C301.62 -18.43 301.37 -19.37 300.97 -20.12C300.57 -20.88 299.83 -21.65 298.75 -22.43L298.76 -22.43C297.08 -23.5 294.76 -24.03 291.81 -24.03C288.09 -24.03 285.18 -23.14 283.08 -21.36C282.35 -20.75 281.75 -19.95 281.3 -18.97C280.85 -18 280.62 -16.9 280.62 -15.67C280.62 -13.99 281.17 -12.64 282.27 -11.65C283.36 -10.65 285.14 -9.82 287.6 -9.16C287.98 -9.04 288.45 -8.93 289.01 -8.82L289.89 -8.59L289.86 -8.59C289.92 -8.57 290.28 -8.51 290.92 -8.41C291.56 -8.3 292.05 -8.16 292.38 -7.97C292.71 -7.78 293.01 -7.58 293.29 -7.38C293.56 -7.18 293.7 -6.81 293.7 -6.26C293.7 -5.72 293.48 -5.27 293.02 -4.93C292.57 -4.58 291.98 -4.41 291.24 -4.41C290.51 -4.41 289.98 -4.66 289.66 -5.15C289.53 -5.36 289.39 -5.64 289.25 -5.99C289.11 -6.33 288.94 -6.51 288.74 -6.51Z M331.85 0.17C331.71 -0.14 331.61 -0.43 331.54 -0.71L331.32 -1.48C331.11 -2.15 330.14 -5.18 328.42 -10.57C326.71 -15.96 325.33 -20.08 324.31 -22.95C324.31 -23.2 324 -23.32 323.38 -23.32L322.16 -23.25L320.68 -23.32L315.2 -23.25L312.64 -23.25C312.61 -23.23 312.52 -22.94 312.36 -22.4C312.2 -21.85 311.8 -20.64 311.17 -18.77C310.54 -16.9 310.15 -15.76 310.02 -15.35L309.6 -14.07L309.62 -14.07L309.27 -12.97C307.51 -7.71 306.11 -3.3 305.08 0.26C305.17 0.38 305.24 0.47 305.32 0.54L306.4 0.54L306.83 0.52L307.29 0.52L311.3 0.43L312.2 0.43L312.58 0.45C313.46 0.45 313.94 0.4 314.05 0.29C314.16 -0.15 314.33 -0.8 314.56 -1.67C314.78 -2.53 314.92 -3.05 314.96 -3.22L321.56 -3.29C321.95 -2.3 322.19 -1.28 322.28 -0.22L322.36 0.11C322.4 0.22 322.44 0.28 322.47 0.29C323.46 0.37 324.7 0.4 326.19 0.4L327.68 0.39L328.62 0.39L329.58 0.37L331 0.37C331.56 0.37 331.84 0.3 331.85 0.17ZM316.58 -8.25L315.67 -8.25L315.84 -9.27C317.21 -15.4 318.04 -18.5 318.32 -18.56C318.55 -18.46 318.7 -18.36 318.77 -18.23C318.79 -18.2 318.81 -18.18 318.82 -18.16C318.84 -18.15 318.85 -18.12 318.87 -18.08C318.88 -18.04 318.9 -18.01 318.91 -17.99C318.92 -17.98 318.93 -17.95 318.94 -17.9C318.96 -17.86 318.98 -17.81 319 -17.76C319.02 -17.7 319.34 -16.32 319.96 -13.59L320.54 -10.95C320.62 -10.38 320.74 -9.48 320.9 -8.25L317.21 -8.24Z M353.7 -5.92C353.68 -6.1 352.8 -6.19 351.06 -6.19C349.32 -6.19 347.51 -6.13 345.65 -6.02L345.03 -6.37L345.1 -12.79L345.11 -12.97L345.16 -17.49L345.28 -22.88C344.98 -23.25 343.36 -23.43 340.41 -23.43L337.82 -23.4L337.07 -23.4C336.71 -23.4 336.43 -23.41 336.23 -23.42C336.01 -23.03 335.9 -22.18 335.9 -20.87L335.95 -18.65L335.95 -18.48C335.97 -17.72 335.98 -16.91 335.98 -16.04L335.96 -11.37L335.96 -8.47L335.95 -5.54L335.95 -2.04L335.92 -1.03C335.92 -0.32 336 0.19 336.16 0.49C337.23 0.51 338 0.52 338.46 0.52C348.55 0.52 353.63 0.39 353.69 0.12C353.7 -0.72 353.7 -1.92 353.7 -3.47C353.63 -3.71 353.6 -4.1 353.6 -4.64L353.6 -5C353.6 -5.33 353.63 -5.64 353.7 -5.92Z M358.54 -19.1L358.53 -16.86L358.44 -0.37L358.44 0.17L358.73 0.46L358.71 0.46L358.76 0.49C359.62 0.49 360.95 0.46 362.74 0.4L365.27 0.34C368.27 0.27 370.28 0.23 371.29 0.23L376.41 0.28C376.63 0.24 376.75 0.09 376.75 -0.17L376.64 -4.37C376.64 -4.86 376.64 -5.24 376.65 -5.51C376.53 -5.64 376.24 -5.71 375.77 -5.71L367.4 -5.45L367.4 -9.18L368.12 -9.18C370 -9.18 372.49 -9.26 375.62 -9.41L375.62 -9.39L375.64 -9.41L375.56 -13.37L375.56 -13.74L375.57 -13.87C375.57 -14.04 375.48 -14.15 375.28 -14.18C375.09 -14.22 374.67 -14.24 374.05 -14.24L373.8 -14.24C373.43 -14.24 372.83 -14.23 372.01 -14.21L367.23 -14.1C367.25 -15.07 367.29 -15.74 367.34 -16.14L367.41 -16.72C367.42 -16.82 367.44 -16.99 367.47 -17.23C367.49 -17.47 367.51 -17.63 367.51 -17.72C370.2 -17.64 372.79 -17.6 375.28 -17.6L375.39 -17.6C375.94 -17.6 376.25 -17.68 376.3 -17.85C376.32 -18.12 376.33 -18.46 376.33 -18.88L376.33 -23.23C376.31 -23.27 376.28 -23.3 376.24 -23.32C372.28 -23.31 366.39 -23.24 358.58 -23.11C358.51 -23.14 358.48 -23.15 358.47 -23.15Z M381.05 -6.37C380.99 -6.37 380.94 -6.38 380.91 -6.39C381 -5.47 381.12 -4.76 381.26 -4.25C381.41 -3.74 381.69 -3.18 382.11 -2.58C382.74 -1.32 383.98 -0.42 385.83 0.14C387.68 0.69 389.55 0.97 391.44 0.97C392.99 0.83 394.44 0.59 395.79 0.25C400.47 -0.92 402.81 -3.46 402.81 -7.37C402.81 -8.84 402.41 -10.13 401.62 -11.24C400.82 -12.34 399.33 -13.27 397.14 -14.01L397.14 -13.99C396.44 -14.22 395.57 -14.45 394.52 -14.7C393.48 -14.95 392.85 -15.1 392.63 -15.16L392.09 -15.3C391.79 -15.38 391.58 -15.44 391.44 -15.48C391.3 -15.52 391.09 -15.59 390.81 -15.7C390.53 -15.8 390.33 -15.91 390.2 -16.01C390.06 -16.11 389.94 -16.25 389.82 -16.43C389.7 -16.6 389.64 -16.82 389.65 -17.09C389.65 -17.36 389.87 -17.63 390.3 -17.92C390.73 -18.2 391.25 -18.34 391.86 -18.34L391.92 -18.34C392.7 -18.34 393.17 -18.16 393.31 -17.79C393.37 -17.63 393.43 -17.48 393.48 -17.32C393.6 -16.95 393.98 -16.77 394.61 -16.77C396.69 -16.77 399.09 -16.82 401.8 -16.92L402.2 -17.32C402.09 -18.43 401.84 -19.37 401.44 -20.12C401.04 -20.88 400.3 -21.65 399.22 -22.43L399.23 -22.43C397.55 -23.5 395.23 -24.03 392.28 -24.03C388.57 -24.03 385.65 -23.14 383.55 -21.36C382.82 -20.75 382.23 -19.95 381.77 -18.97C381.32 -18 381.09 -16.9 381.09 -15.67C381.09 -13.99 381.64 -12.64 382.74 -11.65C383.83 -10.65 385.61 -9.82 388.07 -9.16C388.45 -9.04 388.92 -8.93 389.49 -8.82L390.36 -8.59L390.33 -8.59C390.4 -8.57 390.75 -8.51 391.39 -8.41C392.03 -8.3 392.52 -8.16 392.85 -7.97C393.18 -7.78 393.48 -7.58 393.76 -7.38C394.04 -7.18 394.17 -6.81 394.17 -6.26C394.17 -5.72 393.95 -5.27 393.5 -4.93C393.04 -4.58 392.45 -4.41 391.71 -4.41C390.98 -4.41 390.45 -4.66 390.13 -5.15C390 -5.36 389.86 -5.64 389.72 -5.99C389.59 -6.33 389.41 -6.51 389.21 -6.51Z"></path></g></svg>